<svg enable-background="new 0 0 512 512" height="512" viewBox="0 0 512 512" width="512"
  xmlns="http://www.w3.org/2000/svg">
  <g>
    <g fill="#575f64">
      <path
        d="m256 166c12.828 0 24.985 2.789 36.039 7.646l51.579-86.323-11.34-75.647c-24.098-7.569-49.715-11.676-76.278-11.676-26.567 0-52.185 4.109-76.285 11.68l-11.336 75.643 51.583 86.325c11.053-4.857 23.208-7.648 36.038-7.648z" />
      <path
        d="m292.041 338.352c-11.054 4.857-23.213 7.648-36.041 7.648-12.83 0-24.985-2.792-36.039-7.65l-51.583 86.325 11.336 75.645c24.101 7.571 49.719 11.68 76.286 11.68s52.185-4.109 76.285-11.68l11.338-75.645z" />
    </g>
    <g fill="#474f54">
      <path
        d="m343.623 424.675-51.583-86.323c-11.053 4.857-23.212 7.648-36.04 7.648v166c26.567 0 52.185-4.109 76.285-11.68z" />
      <path
        d="m343.618 87.323-11.34-75.647c-24.098-7.569-49.715-11.676-76.278-11.676v166c12.828 0 24.985 2.789 36.039 7.646z" />
      <path
        d="m166 256c0-36.799 22.253-68.417 53.961-82.352l-40.246-161.968c-103.453 32.507-179.715 130.276-179.715 244.32s76.262 211.813 179.715 244.32l40.247-161.97c-31.709-13.936-53.962-45.551-53.962-82.35z" />
    </g>
    <path
      d="m512 256c0-114.047-76.264-211.82-179.722-244.323l-40.239 161.97c31.71 13.934 53.961 45.552 53.961 82.353s-22.249 68.417-53.959 82.352l40.245 161.968c103.452-32.507 179.714-130.276 179.714-244.32z"
      fill="#32393f" />
    <path
      d="m256 151c-57.891 0-105 47.109-105 105s47.109 105 105 105 105-47.109 105-105-47.109-105-105-105zm0 150c-24.814 0-45-20.186-45-45s20.186-45 45-45 45 20.186 45 45-20.186 45-45 45z"
      fill="#ff8fb8" />
    <path
      d="m361 256c0-57.891-47.109-105-105-105v60c24.814 0 45 20.186 45 45s-20.186 45-45 45v60c57.891 0 105-47.109 105-105z"
      fill="#ff5f96" />
  </g>
</svg>